Coordinates
version=1
nRows=5
nColumns=40
inDegrees=yes

Units are S.I. units (second, meters, Newtons, ...)
Angles are in degrees.

endheader
time	pelvis_tilt	pelvis_list	pelvis_rotation	pelvis_tx	pelvis_ty	pelvis_tz	hip_flexion_r	hip_adduction_r	hip_rotation_r	knee_angle_r	knee_angle_r_beta	ankle_angle_r	subtalar_angle_r	mtp_angle_r	hip_flexion_l	hip_adduction_l	hip_rotation_l	knee_angle_l	knee_angle_l_beta	ankle_angle_l	subtalar_angle_l	mtp_angle_l	lumbar_extension	lumbar_bending	lumbar_rotation	arm_flex_r	arm_add_r	arm_rot_r	elbow_flex_r	pro_sup_r	wrist_flex_r	wrist_dev_r	arm_flex_l	arm_add_l	arm_rot_l	elbow_flex_l	pro_sup_l	wrist_flex_l	wrist_dev_l
     25.95000000	     -6.02897423	     -3.43948697	     -0.35180548	      0.78252806	      0.92765336	      0.43057143	     28.20498753	     -7.79358837	     -8.71948335	     67.08003668	     67.08003668	      1.90946078	    -19.59141075	     17.26762596	     17.92871936	     -4.31187860	     -5.69724793	     22.63675944	     22.63675944	     12.58838433	    -14.62020671	      1.92369443	     -9.93930769	      4.44326512	      0.40474921	     15.35220291	    -13.37311200	     -3.74798438	     79.87011188	     43.00015167	      0.00000000	      0.00000000	      8.35241110	    -15.41752672	     -0.20762001	     47.19633416	     43.75793306	      0.00000000	      0.00000000
     25.96314286	     -6.20546292	     -3.53348122	     -0.85182419	      0.78169165	      0.92809777	      0.43050091	     29.76705800	     -7.49056366	     -8.51987991	     66.99810540	     66.99810540	      2.80873239	    -19.60580717	     18.69161094	     17.37798871	     -4.46910394	     -6.10871218	     22.22224849	     22.22224849	     12.77304250	    -14.60703596	      1.71040199	    -10.09187388	      4.66179075	      1.25099032	     13.37092658	    -13.58522786	     -3.94043185	     76.79169645	     43.15527351	      0.00000000	      0.00000000	      9.53948957	    -15.40155942	     -0.59927886	     48.60189063	     43.88237016	      0.00000000	      0.00000000
     25.97628571	     -6.35099192	     -3.60215622	     -1.30532178	      0.78096134	      0.92859332	      0.43045402	     31.20302565	     -7.17871964	     -8.34923928	     66.72579970	     66.72579970	      3.75341750	    -19.61707869	     20.32869001	     16.69793793	     -4.58637922	     -6.55254854	     21.61633902	     21.61633902	     12.85819961	    -14.46901270	      1.32486804	    -10.21459275	      4.81926746	      1.10754850	     12.52193137	    -12.78566851	     -4.47678106	     72.18560112	     43.43558633	      0.00000000	      0.00000000	      9.66164169	    -15.94864087	     -1.19197422	     51.10017740	     44.10254135	      0.00000000	      0.00000000
     25.98942857	     -6.44090314	     -3.66650263	     -1.78467355	      0.78026282	      0.92915673	      0.43047361	     32.42794857	     -6.86478275	     -8.24169539	     66.09456114	     66.09456114	      4.19294166	    -19.62236608	     20.41366208	     15.95493636	     -4.68265444	     -6.97854441	     21.00845405	     21.00845405	     13.04936709	    -14.38548590	      1.32423864	    -10.51579427	      4.94677307	      1.80505732	     10.73521561	    -13.07287802	     -4.31257692	     69.52044633	     43.54243193	      0.00000000	      0.00000000	     10.68092688	    -16.03250635	     -1.59125626	     52.72195109	     44.20044775	      0.00000000	      0.00000000
     26.00257143	     -6.54399904	     -3.75882858	     -2.20310531	      0.77967354	      0.92963634	      0.43053800	     33.53133997	     -6.44195012	     -8.11628415	     65.09700023	     65.09700023	      4.73792292	    -19.61869567	     20.78288500	     15.27511501	     -4.80898046	     -7.35383972	     20.48023491	     20.48023491	     13.16631235	    -14.21144322	      1.01205745	    -10.66492795	      5.12958393	      1.19441247	     10.99459284	    -12.12545785	     -4.41395400	     63.18094883	     43.88268873	      0.00000000	      0.00000000	     10.13283960	    -16.79994276	     -2.62415733	     56.06877781	     44.49238236	      0.00000000	      0.00000000
